<svg width="350" height="533" viewBox="0 0 350 533" fill="none" xmlns="http://www.w3.org/2000/svg">
<rect width="350" height="532.609" fill="#2F80ED"/>
<rect opacity="0.8" x="0.845703" y="487.802" width="349.155" height="44.8068" fill="#001735"/>
<g style="mix-blend-mode:multiply" clip-path="url(#clip0)">
<path opacity="0.25" d="M509.201 298.907V244.461H476.879V298.907H438.604V214.686H410.536V151.732H387.571V87.0774H339.939V151.732H316.974V214.686H289.756V138.972H274.446V100.689H265.09V138.972H210.654V380.577H168.977V355.055H143.46V380.577H101.783V298.907H26.9334V244.461H-5.38788V298.907H-7.089V403.546H-41.1114V342.294H-81.9383V403.546H-115.961V214.686H-142.328V151.732H-239.292V214.686H-264.809V547.319H-115.961H-7.089H101.783H210.654H289.756H438.604H547.476V298.907H509.201Z" fill="black"/>
<path opacity="0.4" d="M197.896 429.068H114.541V439.277H197.896V429.068Z" fill="white"/>
<path opacity="0.4" d="M197.896 444.381H114.541V454.59H197.896V444.381Z" fill="white"/>
<path opacity="0.4" d="M197.896 459.694H114.541V469.903H197.896V459.694Z" fill="white"/>
<path opacity="0.4" d="M33.7385 318.474H10.7734V348.25H33.7385V318.474Z" fill="white"/>
<path opacity="0.4" d="M60.9568 348.25H83.9219V318.474H60.9568V348.25Z" fill="white"/>
<path opacity="0.4" d="M33.7385 366.115H10.7734V395.89H33.7385V366.115Z" fill="white"/>
<path opacity="0.4" d="M60.9568 395.89H83.9219V366.114H60.9568V395.89Z" fill="white"/>
<path opacity="0.4" d="M33.7385 413.755H10.7734V443.53H33.7385V413.755Z" fill="white"/>
<path opacity="0.4" d="M60.9568 443.531H83.9219V413.755H60.9568V443.531Z" fill="white"/>
<path opacity="0.4" d="M33.7385 461.396H10.7734V491.171H33.7385V461.396Z" fill="white"/>
<path opacity="0.4" d="M60.9568 491.171H83.9219V461.396H60.9568V491.171Z" fill="white"/>
<path opacity="0.4" d="M241.274 158.538H210.654V197.671H241.274V158.538Z" fill="white"/>
<path opacity="0.4" d="M241.274 214.686H210.654V253.819H241.274V214.686Z" fill="white"/>
<path opacity="0.4" d="M241.274 270.834H210.654V309.967H241.274V270.834Z" fill="white"/>
<path opacity="0.4" d="M241.274 326.981H210.654V366.114H241.274V326.981Z" fill="white"/>
<path opacity="0.4" d="M241.274 383.129H210.654V422.263H241.274V383.129Z" fill="white"/>
<path opacity="0.4" d="M241.274 439.277H210.654V478.41H241.274V439.277Z" fill="white"/>
<path opacity="0.4" d="M421.168 238.506H307.193V271.685H421.168V238.506Z" fill="white"/>
<path opacity="0.4" d="M421.594 309.967H307.619V343.145H421.594V309.967Z" fill="white"/>
<path opacity="0.4" d="M422.02 381.428H308.045V414.606H422.02V381.428Z" fill="white"/>
<path opacity="0.4" d="M422.446 452.888H308.471V486.066H422.446V452.888Z" fill="white"/>
<g opacity="0.05">
<path opacity="0.05" d="M6.38398 296.092L5.80561 295.242C5.80561 295.242 5.16767 295.99 2.46289 296.552C3.77875 296.487 5.08876 296.333 6.38398 296.092V296.092Z" fill="black"/>
</g>
</g>
<rect opacity="0.4" width="350" height="485.266" fill="url(#paint0_linear)"/>
<path d="M20.2053 252.847L21.6389 253.679C21.0345 254.635 20.7218 255.605 20.7007 256.589V258.349H18.2868V256.768C18.2868 256.107 18.4695 255.405 18.835 254.66C19.2074 253.908 19.6642 253.304 20.2053 252.847ZM23.8209 252.847L25.2545 253.679C24.6501 254.635 24.3374 255.605 24.3163 256.589V258.349H21.9024V256.768C21.9024 256.107 22.0851 255.405 22.4506 254.66C22.823 253.908 23.2798 253.304 23.8209 252.847ZM39.2003 264.969L41.2664 254.048H44.4182L41.0134 269.396H37.83L35.3318 259.129L32.8335 269.396H29.6501L26.2453 254.048H29.3971L31.4737 264.948L34.0036 254.048H36.681L39.2003 264.969ZM57.837 256.61H53.1356V269.396H49.9733V256.61H45.3352V254.048H57.837V256.61ZM72.1412 269.396H68.9789V262.819H62.8124V269.396H59.65V254.048H62.8124V260.268H68.9789V254.048H72.1412V269.396ZM79.6148 263.609C79.6148 261.831 80.0119 260.415 80.806 259.361C81.6071 258.307 82.6999 257.78 84.0842 257.78C85.1946 257.78 86.1117 258.195 86.8355 259.024V253.205H89.8924V269.396H87.1412L86.9936 268.184C86.2346 269.133 85.2578 269.607 84.0632 269.607C82.7209 269.607 81.6422 269.08 80.8271 268.026C80.0189 266.965 79.6148 265.493 79.6148 263.609ZM82.6612 263.831C82.6612 264.899 82.8474 265.717 83.2199 266.287C83.5923 266.856 84.1334 267.14 84.8432 267.14C85.7849 267.14 86.449 266.743 86.8355 265.949V261.448C86.456 260.654 85.7989 260.257 84.8643 260.257C83.3956 260.257 82.6612 261.448 82.6612 263.831ZM91.7792 263.588C91.7792 262.457 91.9971 261.448 92.4328 260.563C92.8685 259.677 93.4939 258.992 94.3091 258.507C95.1313 258.022 96.0835 257.78 97.1657 257.78C98.7047 257.78 99.9591 258.251 100.929 259.192C101.906 260.134 102.45 261.413 102.563 263.029L102.584 263.809C102.584 265.559 102.095 266.965 101.119 268.026C100.142 269.08 98.8312 269.607 97.1868 269.607C95.5424 269.607 94.2283 269.08 93.2444 268.026C92.2676 266.972 91.7792 265.538 91.7792 263.725V263.588ZM94.8256 263.809C94.8256 264.892 95.0294 265.721 95.437 266.297C95.8446 266.866 96.4279 267.151 97.1868 267.151C97.9247 267.151 98.5009 266.87 98.9155 266.308C99.3302 265.738 99.5375 264.832 99.5375 263.588C99.5375 262.527 99.3302 261.705 98.9155 261.121C98.5009 260.538 97.9177 260.247 97.1657 260.247C96.4208 260.247 95.8446 260.538 95.437 261.121C95.0294 261.698 94.8256 262.594 94.8256 263.809ZM109.71 269.607C108.037 269.607 106.674 269.094 105.62 268.068C104.573 267.042 104.049 265.675 104.049 263.968V263.672C104.049 262.527 104.27 261.504 104.713 260.605C105.156 259.698 105.781 259.003 106.589 258.518C107.405 258.026 108.332 257.78 109.372 257.78C110.932 257.78 112.159 258.272 113.051 259.256C113.951 260.24 114.4 261.634 114.4 263.441V264.684H107.138C107.236 265.429 107.531 266.027 108.023 266.476C108.522 266.926 109.151 267.151 109.91 267.151C111.083 267.151 112.001 266.726 112.661 265.876L114.158 267.552C113.701 268.198 113.083 268.704 112.303 269.069C111.523 269.428 110.658 269.607 109.71 269.607ZM109.362 260.247C108.757 260.247 108.265 260.45 107.886 260.858C107.514 261.266 107.275 261.849 107.169 262.608H111.407V262.365C111.393 261.691 111.21 261.171 110.859 260.805C110.507 260.433 110.008 260.247 109.362 260.247ZM122.317 266.244C122.317 265.872 122.131 265.58 121.758 265.37C121.393 265.152 120.802 264.958 119.987 264.79C117.275 264.221 115.918 263.068 115.918 261.332C115.918 260.32 116.336 259.477 117.173 258.802C118.016 258.121 119.116 257.78 120.472 257.78C121.92 257.78 123.076 258.121 123.94 258.802C124.811 259.484 125.247 260.37 125.247 261.459H122.201C122.201 261.023 122.06 260.665 121.779 260.384C121.498 260.095 121.059 259.951 120.462 259.951C119.949 259.951 119.551 260.067 119.27 260.299C118.989 260.531 118.849 260.826 118.849 261.185C118.849 261.522 119.007 261.796 119.323 262.007C119.646 262.211 120.187 262.39 120.946 262.545C121.705 262.692 122.345 262.861 122.865 263.051C124.474 263.641 125.279 264.663 125.279 266.118C125.279 267.158 124.833 268.001 123.94 268.648C123.048 269.287 121.895 269.607 120.483 269.607C119.527 269.607 118.677 269.438 117.932 269.101C117.194 268.757 116.614 268.289 116.192 267.699C115.771 267.102 115.56 266.459 115.56 265.77H118.448C118.476 266.311 118.677 266.726 119.049 267.014C119.421 267.302 119.92 267.446 120.546 267.446C121.129 267.446 121.568 267.337 121.863 267.119C122.166 266.894 122.317 266.603 122.317 266.244ZM234.642 269.607C232.97 269.607 231.607 269.094 230.553 268.068C229.505 267.042 228.982 265.675 228.982 263.968V263.672C228.982 262.527 229.203 261.504 229.646 260.605C230.089 259.698 230.714 259.003 231.522 258.518C232.338 258.026 233.265 257.78 234.305 257.78C235.865 257.78 237.092 258.272 237.984 259.256C238.884 260.24 239.333 261.634 239.333 263.441V264.684H232.07C232.169 265.429 232.464 266.027 232.956 266.476C233.455 266.926 234.084 267.151 234.843 267.151C236.016 267.151 236.933 266.726 237.594 265.876L239.091 267.552C238.634 268.198 238.016 268.704 237.236 269.069C236.456 269.428 235.591 269.607 234.642 269.607ZM234.295 260.247C233.69 260.247 233.198 260.45 232.819 260.858C232.446 261.266 232.208 261.849 232.102 262.608H236.34V262.365C236.326 261.691 236.143 261.171 235.791 260.805C235.44 260.433 234.941 260.247 234.295 260.247ZM245.194 265.675L247.313 257.991H250.496L246.649 269.396H243.739L239.892 257.991H243.075L245.194 265.675ZM256.947 269.607C255.275 269.607 253.912 269.094 252.857 268.068C251.81 267.042 251.287 265.675 251.287 263.968V263.672C251.287 262.527 251.508 261.504 251.951 260.605C252.394 259.698 253.019 259.003 253.827 258.518C254.642 258.026 255.57 257.78 256.61 257.78C258.17 257.78 259.396 258.272 260.289 259.256C261.188 260.24 261.638 261.634 261.638 263.441V264.684H254.375C254.474 265.429 254.769 266.027 255.261 266.476C255.76 266.926 256.389 267.151 257.148 267.151C258.321 267.151 259.238 266.726 259.899 265.876L261.396 267.552C260.939 268.198 260.321 268.704 259.541 269.069C258.76 269.428 257.896 269.607 256.947 269.607ZM256.6 260.247C255.995 260.247 255.503 260.45 255.124 260.858C254.751 261.266 254.512 261.849 254.407 262.608H258.645V262.365C258.63 261.691 258.448 261.171 258.096 260.805C257.745 260.433 257.246 260.247 256.6 260.247ZM266.181 257.991L266.276 259.308C267.091 258.289 268.184 257.78 269.555 257.78C270.763 257.78 271.663 258.135 272.253 258.845C272.843 259.554 273.146 260.616 273.16 262.028V269.396H270.113V262.102C270.113 261.455 269.973 260.988 269.692 260.7C269.41 260.405 268.943 260.257 268.29 260.257C267.432 260.257 266.789 260.623 266.361 261.353V269.396H263.314V257.991H266.181ZM283.711 257.991L283.806 259.266C284.614 258.275 285.707 257.78 287.084 257.78C288.553 257.78 289.562 258.36 290.11 259.519C290.911 258.36 292.053 257.78 293.536 257.78C294.772 257.78 295.693 258.142 296.297 258.866C296.902 259.582 297.204 260.665 297.204 262.112V269.396H294.147V262.123C294.147 261.476 294.02 261.006 293.767 260.71C293.514 260.408 293.068 260.257 292.429 260.257C291.515 260.257 290.883 260.693 290.531 261.564L290.542 269.396H287.495V262.133C287.495 261.473 287.365 260.995 287.105 260.7C286.845 260.405 286.403 260.257 285.777 260.257C284.913 260.257 284.287 260.616 283.901 261.332V269.396H280.855V257.991H283.711ZM304.804 269.607C303.131 269.607 301.768 269.094 300.714 268.068C299.667 267.042 299.143 265.675 299.143 263.968V263.672C299.143 262.527 299.365 261.504 299.807 260.605C300.25 259.698 300.876 259.003 301.684 258.518C302.499 258.026 303.427 257.78 304.467 257.78C306.027 257.78 307.253 258.272 308.145 259.256C309.045 260.24 309.495 261.634 309.495 263.441V264.684H302.232C302.33 265.429 302.625 266.027 303.117 266.476C303.616 266.926 304.245 267.151 305.004 267.151C306.178 267.151 307.095 266.726 307.755 265.876L309.252 267.552C308.795 268.198 308.177 268.704 307.397 269.069C306.617 269.428 305.753 269.607 304.804 269.607ZM304.456 260.247C303.852 260.247 303.36 260.45 302.98 260.858C302.608 261.266 302.369 261.849 302.264 262.608H306.501V262.365C306.487 261.691 306.304 261.171 305.953 260.805C305.602 260.433 305.103 260.247 304.456 260.247ZM317.843 269.396C317.703 269.122 317.601 268.781 317.538 268.374C316.8 269.196 315.84 269.607 314.66 269.607C313.542 269.607 312.615 269.284 311.877 268.637C311.146 267.991 310.781 267.176 310.781 266.192C310.781 264.983 311.227 264.055 312.119 263.409C313.019 262.762 314.315 262.436 316.009 262.429H317.411V261.775C317.411 261.248 317.274 260.826 317 260.51C316.733 260.194 316.308 260.036 315.724 260.036C315.211 260.036 314.807 260.159 314.512 260.405C314.224 260.651 314.08 260.988 314.08 261.417H311.034C311.034 260.756 311.237 260.145 311.645 259.582C312.053 259.02 312.629 258.581 313.374 258.265C314.119 257.942 314.955 257.78 315.883 257.78C317.288 257.78 318.402 258.135 319.224 258.845C320.053 259.547 320.468 260.538 320.468 261.817V266.761C320.475 267.843 320.626 268.662 320.921 269.217V269.396H317.843ZM315.324 267.277C315.774 267.277 316.188 267.179 316.568 266.982C316.947 266.779 317.228 266.508 317.411 266.171V264.21H316.273C314.748 264.21 313.936 264.737 313.838 265.791L313.827 265.97C313.827 266.35 313.961 266.663 314.228 266.909C314.495 267.155 314.86 267.277 315.324 267.277ZM325.612 257.991L325.707 259.308C326.522 258.289 327.615 257.78 328.985 257.78C330.194 257.78 331.093 258.135 331.684 258.845C332.274 259.554 332.576 260.616 332.59 262.028V269.396H329.544V262.102C329.544 261.455 329.403 260.988 329.122 260.7C328.841 260.405 328.374 260.257 327.72 260.257C326.863 260.257 326.22 260.623 325.791 261.353V269.396H322.745V257.991H325.612ZM137.222 294.396H134.165V282.991H137.222V294.396ZM133.986 280.039C133.986 279.583 134.137 279.207 134.439 278.911C134.748 278.616 135.166 278.469 135.693 278.469C136.213 278.469 136.628 278.616 136.937 278.911C137.246 279.207 137.401 279.583 137.401 280.039C137.401 280.503 137.243 280.883 136.927 281.178C136.617 281.473 136.206 281.62 135.693 281.62C135.18 281.62 134.766 281.473 134.45 281.178C134.14 280.883 133.986 280.503 133.986 280.039ZM142.545 282.991L142.64 284.308C143.455 283.289 144.548 282.78 145.918 282.78C147.127 282.78 148.026 283.135 148.617 283.845C149.207 284.554 149.509 285.616 149.523 287.028V294.396H146.477V287.102C146.477 286.455 146.336 285.988 146.055 285.7C145.774 285.405 145.307 285.257 144.653 285.257C143.796 285.257 143.153 285.623 142.724 286.353V294.396H139.678V282.991H142.545ZM163.395 291.244C163.395 290.872 163.209 290.58 162.837 290.37C162.471 290.152 161.881 289.958 161.066 289.79C158.353 289.221 156.997 288.068 156.997 286.332C156.997 285.32 157.415 284.477 158.251 283.802C159.095 283.121 160.194 282.78 161.551 282.78C162.998 282.78 164.154 283.121 165.019 283.802C165.89 284.484 166.326 285.37 166.326 286.459H163.279C163.279 286.023 163.139 285.665 162.858 285.384C162.577 285.095 162.137 284.951 161.54 284.951C161.027 284.951 160.63 285.067 160.349 285.299C160.068 285.531 159.927 285.826 159.927 286.185C159.927 286.522 160.085 286.796 160.402 287.007C160.725 287.211 161.266 287.39 162.025 287.545C162.784 287.692 163.423 287.861 163.943 288.051C165.553 288.641 166.357 289.663 166.357 291.118C166.357 292.158 165.911 293.001 165.019 293.648C164.126 294.287 162.974 294.607 161.561 294.607C160.605 294.607 159.755 294.438 159.01 294.101C158.272 293.757 157.693 293.289 157.271 292.699C156.849 292.102 156.639 291.459 156.639 290.77H159.527C159.555 291.311 159.755 291.726 160.128 292.014C160.5 292.302 160.999 292.446 161.624 292.446C162.208 292.446 162.647 292.337 162.942 292.119C163.244 291.894 163.395 291.603 163.395 291.244ZM174.938 294.396C174.797 294.122 174.695 293.781 174.632 293.374C173.894 294.196 172.935 294.607 171.754 294.607C170.637 294.607 169.709 294.284 168.972 293.637C168.241 292.991 167.875 292.176 167.875 291.192C167.875 289.983 168.322 289.055 169.214 288.409C170.114 287.762 171.41 287.436 173.104 287.429H174.506V286.775C174.506 286.248 174.369 285.826 174.095 285.51C173.827 285.194 173.402 285.036 172.819 285.036C172.306 285.036 171.902 285.159 171.607 285.405C171.319 285.651 171.175 285.988 171.175 286.417H168.128C168.128 285.756 168.332 285.145 168.74 284.582C169.147 284.02 169.724 283.581 170.468 283.265C171.213 282.942 172.05 282.78 172.977 282.78C174.383 282.78 175.497 283.135 176.319 283.845C177.148 284.547 177.563 285.538 177.563 286.817V291.761C177.57 292.843 177.721 293.662 178.016 294.217V294.396H174.938ZM172.419 292.277C172.868 292.277 173.283 292.179 173.662 291.982C174.042 291.779 174.323 291.508 174.506 291.171V289.21H173.367C171.842 289.21 171.031 289.737 170.932 290.791L170.922 290.97C170.922 291.35 171.055 291.663 171.322 291.909C171.589 292.155 171.955 292.277 172.419 292.277ZM183.118 294.396H180.061V278.205H183.118V294.396ZM190.886 294.607C189.214 294.607 187.851 294.094 186.797 293.068C185.749 292.042 185.226 290.675 185.226 288.968V288.672C185.226 287.527 185.447 286.504 185.89 285.605C186.333 284.698 186.958 284.003 187.766 283.518C188.581 283.026 189.509 282.78 190.549 282.78C192.109 282.78 193.336 283.272 194.228 284.256C195.128 285.24 195.577 286.634 195.577 288.441V289.684H188.314C188.413 290.429 188.708 291.027 189.2 291.476C189.699 291.926 190.328 292.151 191.087 292.151C192.26 292.151 193.177 291.726 193.838 290.876L195.335 292.552C194.878 293.198 194.26 293.704 193.48 294.069C192.7 294.428 191.835 294.607 190.886 294.607ZM190.539 285.247C189.934 285.247 189.442 285.45 189.063 285.858C188.69 286.266 188.451 286.849 188.346 287.608H192.584V287.365C192.57 286.691 192.387 286.171 192.035 285.805C191.684 285.433 191.185 285.247 190.539 285.247ZM203.494 291.244C203.494 290.872 203.307 290.58 202.935 290.37C202.57 290.152 201.979 289.958 201.164 289.79C198.451 289.221 197.095 288.068 197.095 286.332C197.095 285.32 197.513 284.477 198.35 283.802C199.193 283.121 200.293 282.78 201.649 282.78C203.097 282.78 204.253 283.121 205.117 283.802C205.988 284.484 206.424 285.37 206.424 286.459H203.378C203.378 286.023 203.237 285.665 202.956 285.384C202.675 285.095 202.236 284.951 201.638 284.951C201.125 284.951 200.728 285.067 200.447 285.299C200.166 285.531 200.026 285.826 200.026 286.185C200.026 286.522 200.184 286.796 200.5 287.007C200.823 287.211 201.364 287.39 202.123 287.545C202.882 287.692 203.522 287.861 204.042 288.051C205.651 288.641 206.456 289.663 206.456 291.118C206.456 292.158 206.009 293.001 205.117 293.648C204.224 294.287 203.072 294.607 201.659 294.607C200.704 294.607 199.853 294.438 199.109 294.101C198.371 293.757 197.791 293.289 197.369 292.699C196.948 292.102 196.737 291.459 196.737 290.77H199.625C199.653 291.311 199.853 291.726 200.226 292.014C200.598 292.302 201.097 292.446 201.723 292.446C202.306 292.446 202.745 292.337 203.04 292.119C203.343 291.894 203.494 291.603 203.494 291.244ZM210.915 289.684C210.915 288.701 211.034 287.917 211.273 287.334C211.512 286.75 211.948 286.178 212.58 285.616C213.22 285.046 213.645 284.586 213.855 284.235C214.066 283.876 214.172 283.5 214.172 283.107C214.172 281.919 213.624 281.325 212.527 281.325C212.007 281.325 211.589 281.487 211.273 281.81C210.964 282.126 210.802 282.566 210.788 283.128H207.731C207.745 281.786 208.177 280.735 209.028 279.976C209.885 279.217 211.052 278.838 212.527 278.838C214.017 278.838 215.173 279.2 215.995 279.923C216.818 280.64 217.229 281.656 217.229 282.97C217.229 283.567 217.095 284.133 216.828 284.667C216.561 285.194 216.094 285.781 215.426 286.427L214.572 287.239C214.038 287.752 213.733 288.353 213.655 289.041L213.613 289.684H210.915ZM210.609 292.92C210.609 292.45 210.767 292.063 211.083 291.761C211.406 291.452 211.818 291.297 212.316 291.297C212.815 291.297 213.223 291.452 213.539 291.761C213.863 292.063 214.024 292.45 214.024 292.92C214.024 293.384 213.866 293.767 213.55 294.069C213.241 294.372 212.829 294.523 212.316 294.523C211.803 294.523 211.389 294.372 211.073 294.069C210.763 293.767 210.609 293.384 210.609 292.92ZM49.8258 315.264C49.8258 314.554 50.0225 313.897 50.4161 313.293C50.8166 312.689 51.5475 312.017 52.6086 311.28C52.1518 310.668 51.7934 310.095 51.5334 309.561C51.2734 309.02 51.1434 308.458 51.1434 307.875C51.1434 306.68 51.5194 305.71 52.2713 304.966C53.0302 304.214 54.0492 303.838 55.3282 303.838C56.4737 303.838 57.4118 304.178 58.1427 304.86C58.8805 305.542 59.2495 306.392 59.2495 307.411C59.2495 308.634 58.6311 309.713 57.3943 310.647L56.2137 311.501L58.8595 314.579C59.2741 313.764 59.4814 312.864 59.4814 311.88H62.0745C62.0745 313.876 61.6142 315.493 60.6936 316.729L62.9916 319.396H59.5341L58.7435 318.49C57.6121 319.235 56.312 319.607 54.8433 319.607C53.3254 319.607 52.1097 319.21 51.1961 318.416C50.2825 317.615 49.8258 316.564 49.8258 315.264ZM54.9909 317.162C55.7217 317.162 56.4139 316.958 57.0675 316.55L54.0422 313.051L53.8208 313.209C53.1954 313.743 52.8827 314.372 52.8827 315.095C52.8827 315.707 53.0759 316.206 53.4624 316.592C53.856 316.972 54.3654 317.162 54.9909 317.162ZM53.8735 307.833C53.8735 308.36 54.1827 309.024 54.8011 309.825L55.6128 309.287C56.0274 309.02 56.312 308.76 56.4666 308.507C56.6283 308.254 56.7091 307.952 56.7091 307.601C56.7091 307.249 56.5791 306.944 56.3191 306.684C56.059 306.424 55.7252 306.294 55.3177 306.294C54.882 306.294 54.5306 306.434 54.2636 306.715C54.0035 306.996 53.8735 307.369 53.8735 307.833ZM82.482 319.396H79.3197V312.819H73.1532V319.396H69.9908V304.048H73.1532V310.268H79.3197V304.048H82.482V319.396ZM84.5797 313.588C84.5797 312.457 84.7975 311.448 85.2332 310.563C85.6689 309.677 86.2944 308.992 87.1096 308.507C87.9318 308.022 88.884 307.78 89.9662 307.78C91.5052 307.78 92.7596 308.251 93.7294 309.192C94.7062 310.134 95.2508 311.413 95.3632 313.029L95.3843 313.809C95.3843 315.559 94.8959 316.965 93.9191 318.026C92.9423 319.08 91.6317 319.607 89.9873 319.607C88.3429 319.607 87.0287 319.08 86.0449 318.026C85.0681 316.972 84.5797 315.538 84.5797 313.725V313.588ZM87.6261 313.809C87.6261 314.892 87.8299 315.721 88.2375 316.297C88.645 316.866 89.2283 317.151 89.9873 317.151C90.7251 317.151 91.3014 316.87 91.716 316.308C92.1306 315.738 92.3379 314.832 92.3379 313.588C92.3379 312.527 92.1306 311.705 91.716 311.121C91.3014 310.538 90.7181 310.247 89.9662 310.247C89.2213 310.247 88.645 310.538 88.2375 311.121C87.8299 311.698 87.6261 312.594 87.6261 313.809ZM107.18 315.254L108.677 307.991H111.618L108.708 319.396H106.157L103.996 312.218L101.835 319.396H99.295L96.3857 307.991H99.3267L100.813 315.243L102.9 307.991H105.103L107.18 315.254ZM128.431 315.254L129.927 307.991H132.868L129.959 319.396H127.408L125.247 312.218L123.086 319.396H120.546L117.637 307.991H120.577L122.064 315.243L124.151 307.991H126.354L128.431 315.254ZM139.636 319.607C137.963 319.607 136.6 319.094 135.546 318.068C134.499 317.042 133.975 315.675 133.975 313.968V313.672C133.975 312.527 134.197 311.504 134.639 310.605C135.082 309.698 135.707 309.003 136.516 308.518C137.331 308.026 138.258 307.78 139.298 307.78C140.859 307.78 142.085 308.272 142.977 309.256C143.877 310.24 144.327 311.634 144.327 313.441V314.684H137.064C137.162 315.429 137.457 316.027 137.949 316.476C138.448 316.926 139.077 317.151 139.836 317.151C141.01 317.151 141.927 316.726 142.587 315.876L144.084 317.552C143.627 318.198 143.009 318.704 142.229 319.069C141.449 319.428 140.584 319.607 139.636 319.607ZM139.288 310.247C138.684 310.247 138.192 310.45 137.812 310.858C137.44 311.266 137.201 311.849 137.095 312.608H141.333V312.365C141.319 311.691 141.136 311.171 140.785 310.805C140.433 310.433 139.934 310.247 139.288 310.247ZM157.851 310.847C157.436 310.791 157.071 310.763 156.754 310.763C155.602 310.763 154.847 311.153 154.488 311.933V319.396H151.442V307.991H154.319L154.404 309.351C155.015 308.304 155.862 307.78 156.944 307.78C157.282 307.78 157.598 307.826 157.893 307.917L157.851 310.847ZM164.365 319.607C162.693 319.607 161.329 319.094 160.275 318.068C159.228 317.042 158.705 315.675 158.705 313.968V313.672C158.705 312.527 158.926 311.504 159.369 310.605C159.811 309.698 160.437 309.003 161.245 308.518C162.06 308.026 162.988 307.78 164.028 307.78C165.588 307.78 166.814 308.272 167.707 309.256C168.606 310.24 169.056 311.634 169.056 313.441V314.684H161.793C161.891 315.429 162.187 316.027 162.679 316.476C163.178 316.926 163.806 317.151 164.565 317.151C165.739 317.151 166.656 316.726 167.317 315.876L168.813 317.552C168.357 318.198 167.738 318.704 166.958 319.069C166.178 319.428 165.314 319.607 164.365 319.607ZM164.017 310.247C163.413 310.247 162.921 310.45 162.542 310.858C162.169 311.266 161.93 311.849 161.825 312.608H166.062V312.365C166.048 311.691 165.865 311.171 165.514 310.805C165.163 310.433 164.664 310.247 164.017 310.247ZM177.404 319.396C177.264 319.122 177.162 318.781 177.099 318.374C176.361 319.196 175.402 319.607 174.221 319.607C173.104 319.607 172.176 319.284 171.438 318.637C170.707 317.991 170.342 317.176 170.342 316.192C170.342 314.983 170.788 314.055 171.681 313.409C172.58 312.762 173.877 312.436 175.57 312.429H176.972V311.775C176.972 311.248 176.835 310.826 176.561 310.51C176.294 310.194 175.869 310.036 175.286 310.036C174.773 310.036 174.369 310.159 174.073 310.405C173.785 310.651 173.641 310.988 173.641 311.417H170.595C170.595 310.756 170.799 310.145 171.206 309.582C171.614 309.02 172.19 308.581 172.935 308.265C173.68 307.942 174.516 307.78 175.444 307.78C176.849 307.78 177.963 308.135 178.785 308.845C179.615 309.547 180.029 310.538 180.029 311.817V316.761C180.036 317.843 180.187 318.662 180.482 319.217V319.396H177.404ZM174.885 317.277C175.335 317.277 175.749 317.179 176.129 316.982C176.508 316.779 176.79 316.508 176.972 316.171V314.21H175.834C174.309 314.21 173.497 314.737 173.399 315.791L173.388 315.97C173.388 316.35 173.522 316.663 173.789 316.909C174.056 317.155 174.421 317.277 174.885 317.277ZM185.584 319.396H182.527V303.205H185.584V319.396ZM191.319 319.396H188.262V303.205H191.319V319.396ZM198.097 315.085L200.205 307.991H203.473L198.887 321.167L198.634 321.768C197.953 323.258 196.828 324.003 195.261 324.003C194.818 324.003 194.369 323.936 193.912 323.802V321.494L194.376 321.504C194.952 321.504 195.381 321.417 195.662 321.241C195.95 321.065 196.175 320.774 196.336 320.366L196.695 319.428L192.7 307.991H195.978L198.097 315.085ZM209.576 313.609C209.576 311.831 209.973 310.415 210.767 309.361C211.568 308.307 212.661 307.78 214.045 307.78C215.156 307.78 216.073 308.195 216.796 309.024V303.205H219.853V319.396H217.102L216.955 318.184C216.196 319.133 215.219 319.607 214.024 319.607C212.682 319.607 211.603 319.08 210.788 318.026C209.98 316.965 209.576 315.493 209.576 313.609ZM212.622 313.831C212.622 314.899 212.808 315.717 213.181 316.287C213.553 316.856 214.094 317.14 214.804 317.14C215.746 317.14 216.41 316.743 216.796 315.949V311.448C216.417 310.654 215.76 310.257 214.825 310.257C213.357 310.257 212.622 311.448 212.622 313.831ZM227.464 319.607C225.791 319.607 224.428 319.094 223.374 318.068C222.327 317.042 221.803 315.675 221.803 313.968V313.672C221.803 312.527 222.025 311.504 222.468 310.605C222.91 309.698 223.536 309.003 224.344 308.518C225.159 308.026 226.087 307.78 227.127 307.78C228.687 307.78 229.913 308.272 230.806 309.256C231.705 310.24 232.155 311.634 232.155 313.441V314.684H224.892C224.99 315.429 225.286 316.027 225.777 316.476C226.276 316.926 226.905 317.151 227.664 317.151C228.838 317.151 229.755 316.726 230.416 315.876L231.912 317.552C231.456 318.198 230.837 318.704 230.057 319.069C229.277 319.428 228.413 319.607 227.464 319.607ZM227.116 310.247C226.512 310.247 226.02 310.45 225.64 310.858C225.268 311.266 225.029 311.849 224.924 312.608H229.161V312.365C229.147 311.691 228.964 311.171 228.613 310.805C228.262 310.433 227.763 310.247 227.116 310.247ZM237.109 319.396H234.052V303.205H237.109V319.396ZM242.843 319.396H239.787V307.991H242.843V319.396ZM239.607 305.039C239.607 304.583 239.758 304.207 240.061 303.911C240.37 303.616 240.788 303.469 241.315 303.469C241.835 303.469 242.25 303.616 242.559 303.911C242.868 304.207 243.023 304.583 243.023 305.039C243.023 305.503 242.865 305.883 242.548 306.178C242.239 306.473 241.828 306.62 241.315 306.62C240.802 306.62 240.387 306.473 240.071 306.178C239.762 305.883 239.607 305.503 239.607 305.039ZM249.632 315.675L251.751 307.991H254.934L251.087 319.396H248.177L244.33 307.991H247.513L249.632 315.675ZM261.385 319.607C259.713 319.607 258.349 319.094 257.295 318.068C256.248 317.042 255.725 315.675 255.725 313.968V313.672C255.725 312.527 255.946 311.504 256.389 310.605C256.831 309.698 257.457 309.003 258.265 308.518C259.08 308.026 260.008 307.78 261.048 307.78C262.608 307.78 263.834 308.272 264.727 309.256C265.626 310.24 266.076 311.634 266.076 313.441V314.684H258.813C258.912 315.429 259.207 316.027 259.699 316.476C260.198 316.926 260.827 317.151 261.585 317.151C262.759 317.151 263.676 316.726 264.337 315.876L265.834 317.552C265.377 318.198 264.758 318.704 263.978 319.069C263.198 319.428 262.334 319.607 261.385 319.607ZM261.037 310.247C260.433 310.247 259.941 310.45 259.562 310.858C259.189 311.266 258.95 311.849 258.845 312.608H263.082V312.365C263.068 311.691 262.886 311.171 262.534 310.805C262.183 310.433 261.684 310.247 261.037 310.247ZM274.224 310.847C273.81 310.791 273.444 310.763 273.128 310.763C271.976 310.763 271.22 311.153 270.862 311.933V319.396H267.815V307.991H270.693L270.777 309.351C271.389 308.304 272.236 307.78 273.318 307.78C273.655 307.78 273.971 307.826 274.266 307.917L274.224 310.847ZM284.291 319.396H281.234V307.991H284.291V319.396ZM281.055 305.039C281.055 304.583 281.206 304.207 281.508 303.911C281.817 303.616 282.235 303.469 282.763 303.469C283.283 303.469 283.697 303.616 284.006 303.911C284.316 304.207 284.47 304.583 284.47 305.039C284.47 305.503 284.312 305.883 283.996 306.178C283.687 306.473 283.276 306.62 282.763 306.62C282.25 306.62 281.835 306.473 281.519 306.178C281.209 305.883 281.055 305.503 281.055 305.039ZM290.458 305.187V307.991H292.408V310.226H290.458V315.918C290.458 316.339 290.538 316.642 290.7 316.824C290.862 317.007 291.171 317.098 291.628 317.098C291.965 317.098 292.264 317.074 292.524 317.024V319.333C291.926 319.516 291.311 319.607 290.679 319.607C288.543 319.607 287.453 318.528 287.411 316.371V310.226H285.746V307.991H287.411V305.187H290.458ZM295.127 308.76L293.694 307.928C294.298 306.979 294.611 305.999 294.632 304.987V303.205H297.056V304.839C297.056 305.471 296.881 306.157 296.529 306.895C296.178 307.632 295.71 308.254 295.127 308.76ZM298.785 308.76L297.351 307.928C297.956 306.979 298.268 305.999 298.29 304.987V303.205H300.714V304.839C300.714 305.471 300.538 306.157 300.187 306.895C299.836 307.632 299.368 308.254 298.785 308.76Z" fill="white"/>
<line opacity="0.7" x1="148.538" y1="223.277" x2="143.569" y2="256.396" stroke="white" stroke-width="1.19934"/>
<line opacity="0.7" x1="210.872" y1="256.515" x2="205.83" y2="222.897" stroke="white" stroke-width="1.19934"/>
<g style="mix-blend-mode:difference">
<path d="M263.519 152.245C258.667 152.199 253.818 152.491 249.007 153.12V153.12C249.007 152.197 248.64 151.311 247.987 150.658C247.334 150.005 246.448 149.638 245.524 149.638C244.601 149.638 243.715 150.005 243.062 150.658C242.409 151.311 242.042 152.197 242.042 153.12V153.12C237.231 152.491 232.382 152.199 227.53 152.245C216.795 152.245 208.085 153.397 208.085 154.859C208.085 156.321 216.789 157.472 227.53 157.472C232.382 157.518 237.231 157.226 242.042 156.597V156.597C242.042 157.016 242.118 157.431 242.266 157.823C241.952 158.017 241.689 158.283 241.499 158.6C241.309 158.917 241.198 159.274 241.176 159.643C241.153 160.011 241.22 160.38 241.369 160.717C241.519 161.055 241.748 161.351 242.036 161.582C241.191 161.87 240.415 162.331 239.758 162.936C239.101 163.54 238.577 164.275 238.22 165.093C237.257 164.358 236.092 163.934 234.881 163.879L198.726 162.267C197.41 160.506 195.701 159.077 193.735 158.092C191.77 157.108 189.601 156.596 187.403 156.597H164.643C162.426 156.596 160.241 157.117 158.263 158.117C156.285 159.117 154.57 160.568 153.257 162.353L118.915 163.89C117.794 163.94 116.711 164.305 115.789 164.944C115.113 163.494 113.92 162.349 112.445 161.732C112.815 161.496 113.109 161.16 113.295 160.762C113.48 160.365 113.548 159.923 113.49 159.488C113.433 159.053 113.253 158.644 112.97 158.308C112.688 157.972 112.316 157.724 111.898 157.593C111.994 157.27 112.043 156.934 112.042 156.597C116.853 157.226 121.702 157.518 126.553 157.472C137.289 157.472 145.998 156.321 145.998 154.859C145.998 153.397 137.295 152.245 126.553 152.245C121.702 152.199 116.853 152.491 112.042 153.12V153.12C112.042 152.204 111.678 151.326 111.03 150.678C110.382 150.03 109.504 149.666 108.588 149.666C107.672 149.666 106.793 150.03 106.146 150.678C105.498 151.326 105.134 152.204 105.134 153.12C100.323 152.491 95.4742 152.199 90.6225 152.245C79.887 152.245 71.1777 153.397 71.1777 154.859C71.1777 156.321 79.8813 157.472 90.6225 157.472C95.4742 157.518 100.323 157.226 105.134 156.597V156.597C105.134 157.016 105.21 157.431 105.359 157.823C105.035 158.022 104.765 158.297 104.574 158.625C104.382 158.953 104.275 159.323 104.261 159.703C104.248 160.082 104.328 160.459 104.496 160.8C104.663 161.141 104.912 161.435 105.22 161.657C104.002 162.116 102.952 162.936 102.211 164.006C101.47 165.076 101.072 166.347 101.07 167.649V171.943C101.072 173.634 101.741 175.256 102.932 176.456C104.123 177.656 105.74 178.336 107.431 178.35H109.981C110.981 178.35 111.966 178.116 112.859 177.666C113.752 177.216 114.527 176.563 115.121 175.76C116.181 176.747 117.565 177.314 119.013 177.354L152.687 178.298C153.762 179.995 155.184 181.445 156.86 182.552C153.637 185.828 141.065 200.351 143.091 225.943C143.091 225.943 145.123 229.714 150.344 225.943C150.344 225.943 147.005 197.426 165.696 185.684C166.013 186.593 166.605 187.382 167.39 187.94C168.174 188.498 169.114 188.798 170.077 188.798H172.466C169.763 189.864 167.517 191.84 166.114 194.384C164.712 196.929 164.242 199.883 164.785 202.738C165.327 205.592 166.849 208.167 169.087 210.02C171.325 211.873 174.139 212.887 177.045 212.887C179.95 212.887 182.764 211.873 185.003 210.02C187.241 208.167 188.762 205.592 189.305 202.738C189.847 199.883 189.377 196.929 187.975 194.384C186.573 191.84 184.327 189.864 181.624 188.798H184.013C184.976 188.798 185.915 188.498 186.7 187.94C187.485 187.382 188.077 186.593 188.393 185.684C207.084 197.426 203.745 225.943 203.745 225.943C208.966 229.714 210.998 225.943 210.998 225.943C213.301 196.632 196.487 181.838 196.487 181.838H196.181C197.419 180.859 198.485 179.68 199.336 178.35L234.783 177.36C236.307 177.325 237.76 176.707 238.841 175.633C239.431 176.483 240.217 177.177 241.134 177.656C242.05 178.135 243.069 178.385 244.103 178.385H246.653C247.495 178.385 248.329 178.219 249.107 177.897C249.885 177.574 250.592 177.102 251.187 176.506C251.782 175.911 252.255 175.204 252.577 174.426C252.899 173.648 253.065 172.814 253.065 171.972V167.678C253.065 166.439 252.706 165.228 252.032 164.189C251.358 163.15 250.397 162.328 249.266 161.824C249.659 161.606 249.98 161.278 250.19 160.88C250.399 160.482 250.486 160.031 250.442 159.584C250.398 159.136 250.224 158.711 249.941 158.362C249.659 158.012 249.28 157.753 248.852 157.616C248.948 157.293 248.996 156.957 248.995 156.62C253.806 157.249 258.655 157.541 263.507 157.495C274.243 157.495 282.952 156.344 282.952 154.882C282.952 153.42 274.26 152.245 263.519 152.245Z" fill="url(#paint1_linear)"/>
</g>
<path d="M188.638 199.747C188.638 206.147 183.45 211.336 177.049 211.336C170.649 211.336 165.46 206.147 165.46 199.747C165.46 193.346 170.649 188.157 177.049 188.157C183.45 188.157 188.638 193.346 188.638 199.747Z" fill="white" stroke="#808080" stroke-width="0.353382"/>
<path d="M184.811 199.746C184.811 204.033 181.336 207.508 177.049 207.508C172.763 207.508 169.288 204.033 169.288 199.746C169.288 195.46 172.763 191.985 177.049 191.985C181.336 191.985 184.811 195.46 184.811 199.746Z" fill="white" stroke="#808080" stroke-width="0.353382"/>
<path opacity="0.2" d="M177.049 207.684C181.433 207.684 184.987 204.13 184.987 199.746C184.987 195.362 181.433 191.808 177.049 191.808C172.665 191.808 169.111 195.362 169.111 199.746C169.111 204.13 172.665 207.684 177.049 207.684Z" fill="#F5F5F5"/>
<path d="M177.048 204.944C179.918 204.944 182.245 202.617 182.245 199.747C182.245 196.876 179.918 194.549 177.048 194.549C174.177 194.549 171.85 196.876 171.85 199.747C171.85 202.617 174.177 204.944 177.048 204.944Z" fill="white"/>
<path opacity="0.8" d="M177.048 204.944C179.918 204.944 182.245 202.617 182.245 199.747C182.245 196.876 179.918 194.549 177.048 194.549C174.177 194.549 171.85 196.876 171.85 199.747C171.85 202.617 174.177 204.944 177.048 204.944Z" fill="#2F80ED"/>
<path d="M173.759 182.402C160.939 186.046 155.393 196.147 153.069 205.445C151.867 210.252 151.524 214.851 151.481 218.247C151.46 219.945 151.513 221.343 151.572 222.318C151.602 222.805 151.633 223.186 151.656 223.446C151.668 223.575 151.678 223.675 151.685 223.742C149.3 225.436 147.679 225.406 146.668 224.996C146.15 224.785 145.777 224.47 145.534 224.206C145.412 224.074 145.323 223.956 145.265 223.871C145.236 223.829 145.215 223.795 145.201 223.773C145.201 223.772 145.201 223.772 145.2 223.771C144.119 210.014 147.527 199.662 151.204 192.75C153.045 189.289 154.953 186.69 156.4 184.957C157.124 184.091 157.732 183.441 158.158 183.008C158.371 182.792 158.539 182.63 158.653 182.523C158.707 182.472 158.749 182.434 158.778 182.407L173.759 182.402Z" fill="white" stroke="#808080" stroke-width="0.353382"/>
<path d="M195.314 182.407C195.343 182.434 195.385 182.472 195.439 182.523C195.553 182.63 195.721 182.792 195.934 183.008C196.361 183.441 196.969 184.091 197.693 184.957C199.141 186.69 201.05 189.289 202.893 192.75C206.573 199.662 209.987 210.014 208.915 223.771C208.915 223.772 208.914 223.772 208.914 223.773C208.9 223.795 208.879 223.829 208.85 223.871C208.792 223.956 208.703 224.074 208.582 224.206C208.338 224.47 207.965 224.785 207.447 224.996C206.436 225.406 204.815 225.436 202.43 223.742C202.437 223.675 202.447 223.575 202.459 223.446C202.483 223.186 202.513 222.805 202.543 222.318C202.602 221.343 202.655 219.945 202.634 218.247C202.591 214.851 202.248 210.252 201.046 205.445C198.722 196.147 193.176 186.046 180.357 182.402L195.314 182.407Z" fill="white" stroke="#808080" stroke-width="0.353382"/>
<path d="M165.347 158.593H186.829C194.101 158.593 199.996 164.488 199.996 171.759C199.996 179.031 194.101 184.926 186.829 184.926H165.347C158.075 184.926 152.181 179.031 152.181 171.759C152.181 164.488 158.075 158.593 165.347 158.593Z" fill="white" stroke="#808080" stroke-width="0.353382"/>
<path d="M122.317 177.823L122.317 177.823C120.895 177.784 119.545 177.191 118.554 176.172C117.563 175.152 117.008 173.786 117.009 172.364V172.364V170.925C117.009 169.52 117.551 168.169 118.522 167.153C119.493 166.137 120.818 165.535 122.222 165.472L159.805 163.785L159.798 163.625L159.805 163.785C160.542 163.752 161.278 163.869 161.968 164.128C162.659 164.387 163.289 164.783 163.822 165.293C164.356 165.802 164.78 166.415 165.07 167.093C165.36 167.771 165.509 168.501 165.509 169.238V173.423C165.509 174.152 165.362 174.874 165.078 175.546C164.794 176.217 164.378 176.825 163.855 177.334C163.332 177.842 162.713 178.24 162.034 178.505C161.354 178.77 160.629 178.896 159.9 178.876L122.317 177.823Z" fill="white" stroke="#808080" stroke-width="0.353382"/>
<path d="M231.504 177.823L231.504 177.823L193.921 178.876C193.192 178.896 192.466 178.77 191.787 178.505C191.107 178.24 190.488 177.842 189.965 177.334C189.442 176.825 189.027 176.217 188.743 175.546C188.459 174.874 188.312 174.152 188.311 173.423L188.311 169.238C188.311 168.501 188.461 167.771 188.751 167.093C189.041 166.415 189.465 165.802 189.998 165.293C190.531 164.783 191.162 164.387 191.852 164.128C192.543 163.869 193.279 163.752 194.016 163.785L194.016 163.785L231.598 165.472C233.002 165.535 234.328 166.137 235.299 167.153C236.27 168.169 236.812 169.52 236.812 170.925V172.364V172.364C236.812 173.786 236.258 175.152 235.267 176.172C234.275 177.191 232.925 177.784 231.504 177.823Z" fill="white" stroke="#808080" stroke-width="0.353382"/>
<path opacity="0.2" d="M122.317 177.823L122.317 177.823C120.895 177.784 119.545 177.191 118.554 176.172C117.563 175.152 117.008 173.786 117.009 172.364V172.364V170.925C117.009 169.52 117.551 168.169 118.522 167.153C119.493 166.137 120.818 165.535 122.222 165.472L159.805 163.785L159.798 163.625L159.805 163.785C160.542 163.752 161.278 163.869 161.968 164.128C162.659 164.387 163.289 164.783 163.822 165.293C164.356 165.802 164.78 166.415 165.07 167.093C165.36 167.771 165.509 168.501 165.509 169.238V173.423C165.509 174.152 165.362 174.874 165.078 175.546C164.794 176.217 164.378 176.825 163.855 177.334C163.332 177.842 162.713 178.24 162.034 178.505C161.354 178.77 160.629 178.896 159.9 178.876L122.317 177.823Z" fill="#F5F5F5" stroke="#808080" stroke-width="0.353382"/>
<path opacity="0.2" d="M231.504 177.823L231.504 177.823L193.921 178.876C193.192 178.896 192.466 178.77 191.787 178.505C191.107 178.24 190.488 177.842 189.965 177.334C189.442 176.825 189.027 176.217 188.743 175.546C188.459 174.874 188.312 174.152 188.311 173.423L188.311 169.238C188.311 168.501 188.461 167.771 188.751 167.093C189.041 166.415 189.465 165.802 189.998 165.293C190.531 164.783 191.162 164.387 191.852 164.128C192.543 163.869 193.279 163.752 194.016 163.785L194.016 163.785L231.598 165.472C233.002 165.535 234.328 166.137 235.299 167.153C236.27 168.169 236.812 169.52 236.812 170.925V172.364V172.364C236.812 173.786 236.258 175.152 235.267 176.172C234.275 177.191 232.925 177.784 231.504 177.823Z" fill="#F5F5F5" stroke="#808080" stroke-width="0.353382"/>
<path d="M111.772 162.974H113.418C116.871 162.974 119.671 165.773 119.671 169.227V172.514C119.671 175.967 116.871 178.767 113.418 178.767H111.772C108.318 178.767 105.518 175.967 105.518 172.514V169.227C105.518 165.773 108.318 162.974 111.772 162.974Z" fill="white" stroke="#808080" stroke-width="0.353382"/>
<path d="M240.68 162.974H242.326C245.78 162.974 248.579 165.773 248.579 169.227V172.514C248.579 175.967 245.78 178.767 242.326 178.767H240.68C237.226 178.767 234.427 175.967 234.427 172.514V169.227C234.427 165.773 237.226 162.974 240.68 162.974Z" fill="white" stroke="#808080" stroke-width="0.353382"/>
<path d="M110.541 159.416H114.921C116.032 159.416 116.932 160.316 116.932 161.427V161.433C116.932 162.543 116.032 163.443 114.921 163.443H110.541C109.43 163.443 108.53 162.543 108.53 161.433V161.427C108.53 160.316 109.43 159.416 110.541 159.416Z" fill="white" stroke="#808080" stroke-width="0.353382"/>
<path d="M112.462 152.025C114.178 152.025 115.569 153.417 115.569 155.135V158.416C115.569 160.134 114.178 161.526 112.462 161.526C110.746 161.526 109.354 160.134 109.354 158.416V155.135C109.354 153.417 110.746 152.025 112.462 152.025Z" fill="white" stroke="#808080" stroke-width="0.353382"/>
<path d="M113.651 156.776C113.651 156.851 113.591 156.971 113.358 157.125C113.133 157.272 112.791 157.421 112.333 157.566C111.419 157.856 110.088 158.12 108.432 158.343C105.124 158.787 100.547 159.063 95.488 159.063C90.429 159.063 85.8523 158.787 82.5435 158.343C80.8878 158.12 79.5567 157.856 78.6431 157.566C78.1851 157.421 77.8425 157.272 77.618 157.125C77.3847 156.971 77.3251 156.851 77.3251 156.776C77.3251 156.7 77.3847 156.58 77.618 156.427C77.8425 156.279 78.1851 156.131 78.6431 155.985C79.5567 155.695 80.8878 155.431 82.5435 155.209C85.8523 154.764 90.429 154.489 95.488 154.489C100.547 154.489 105.124 154.764 108.432 155.209C110.088 155.431 111.419 155.695 112.333 155.985C112.791 156.131 113.133 156.279 113.358 156.427C113.591 156.58 113.651 156.7 113.651 156.776Z" fill="white" stroke="#808080" stroke-width="0.353382"/>
<path d="M147.59 156.776C147.59 156.851 147.531 156.971 147.297 157.125C147.073 157.272 146.73 157.421 146.272 157.566C145.359 157.856 144.028 158.12 142.372 158.343C139.063 158.787 134.486 159.063 129.427 159.063C124.368 159.063 119.792 158.787 116.483 158.343C114.827 158.12 113.496 157.856 112.583 157.566C112.125 157.421 111.782 157.272 111.557 157.125C111.324 156.971 111.265 156.851 111.265 156.776C111.265 156.7 111.324 156.58 111.557 156.427C111.782 156.279 112.125 156.131 112.583 155.985C113.496 155.695 114.827 155.431 116.483 155.209C119.792 154.764 124.368 154.489 129.427 154.489C134.486 154.489 139.063 154.764 142.372 155.209C144.028 155.431 145.359 155.695 146.272 155.985C146.73 156.131 147.073 156.279 147.297 156.427C147.531 156.58 147.59 156.7 147.59 156.776Z" fill="white" stroke="#808080" stroke-width="0.353382"/>
<path d="M239.719 159.416H244.099C245.21 159.416 246.11 160.316 246.11 161.427V161.433C246.11 162.543 245.21 163.443 244.099 163.443H239.719C238.608 163.443 237.708 162.543 237.708 161.433V161.427C237.708 160.316 238.608 159.416 239.719 159.416Z" fill="white" stroke="#808080" stroke-width="0.353382"/>
<path d="M241.637 152.025C243.353 152.025 244.745 153.417 244.745 155.135V158.416C244.745 160.134 243.353 161.526 241.637 161.526C239.922 161.526 238.53 160.134 238.53 158.416V155.135C238.53 153.417 239.922 152.025 241.637 152.025Z" fill="white" stroke="#808080" stroke-width="0.353382"/>
<path d="M242.831 156.776C242.831 156.851 242.771 156.971 242.538 157.125C242.313 157.272 241.971 157.421 241.513 157.566C240.599 157.856 239.268 158.12 237.612 158.343C234.303 158.787 229.727 159.063 224.668 159.063C219.609 159.063 215.032 158.787 211.723 158.343C210.067 158.12 208.736 157.856 207.823 157.566C207.365 157.421 207.022 157.272 206.798 157.125C206.564 156.971 206.505 156.851 206.505 156.776C206.505 156.7 206.564 156.58 206.798 156.427C207.022 156.279 207.365 156.131 207.823 155.985C208.736 155.695 210.067 155.431 211.723 155.209C215.032 154.764 219.609 154.489 224.668 154.489C229.727 154.489 234.303 154.764 237.612 155.209C239.268 155.431 240.599 155.695 241.513 155.985C241.971 156.131 242.313 156.279 242.538 156.427C242.771 156.58 242.831 156.7 242.831 156.776Z" fill="white" stroke="#808080" stroke-width="0.353382"/>
<path d="M276.768 156.776C276.768 156.851 276.708 156.971 276.475 157.125C276.251 157.272 275.908 157.421 275.45 157.566C274.536 157.856 273.205 158.12 271.55 158.343C268.241 158.787 263.664 159.063 258.605 159.063C253.546 159.063 248.97 158.787 245.661 158.343C244.005 158.12 242.674 157.856 241.76 157.566C241.302 157.421 240.96 157.272 240.735 157.125C240.502 156.971 240.442 156.851 240.442 156.776C240.442 156.7 240.502 156.58 240.735 156.427C240.96 156.279 241.302 156.131 241.76 155.985C242.674 155.695 244.005 155.431 245.661 155.209C248.97 154.764 253.546 154.489 258.605 154.489C263.664 154.489 268.241 154.764 271.55 155.209C273.205 155.431 274.536 155.695 275.45 155.985C275.908 156.131 276.251 156.279 276.475 156.427C276.708 156.58 276.768 156.7 276.768 156.776Z" fill="white" stroke="#808080" stroke-width="0.353382"/>
<path opacity="0.2" d="M113.651 156.776C113.651 156.851 113.591 156.971 113.358 157.125C113.133 157.272 112.791 157.421 112.333 157.566C111.419 157.856 110.088 158.12 108.432 158.343C105.124 158.787 100.547 159.063 95.488 159.063C90.429 159.063 85.8523 158.787 82.5435 158.343C80.8878 158.12 79.5567 157.856 78.6431 157.566C78.1851 157.421 77.8425 157.272 77.618 157.125C77.3847 156.971 77.3251 156.851 77.3251 156.776C77.3251 156.7 77.3847 156.58 77.618 156.427C77.8425 156.279 78.1851 156.131 78.6431 155.985C79.5567 155.695 80.8878 155.431 82.5435 155.209C85.8523 154.764 90.429 154.489 95.488 154.489C100.547 154.489 105.124 154.764 108.432 155.209C110.088 155.431 111.419 155.695 112.333 155.985C112.791 156.131 113.133 156.279 113.358 156.427C113.591 156.58 113.651 156.7 113.651 156.776Z" fill="#F5F5F5" stroke="#808080" stroke-width="0.353382"/>
<path opacity="0.2" d="M147.59 156.776C147.59 156.851 147.531 156.971 147.297 157.125C147.073 157.272 146.73 157.421 146.272 157.566C145.359 157.856 144.028 158.12 142.372 158.343C139.063 158.787 134.486 159.063 129.427 159.063C124.368 159.063 119.792 158.787 116.483 158.343C114.827 158.12 113.496 157.856 112.583 157.566C112.125 157.421 111.782 157.272 111.557 157.125C111.324 156.971 111.265 156.851 111.265 156.776C111.265 156.7 111.324 156.58 111.557 156.427C111.782 156.279 112.125 156.131 112.583 155.985C113.496 155.695 114.827 155.431 116.483 155.209C119.792 154.764 124.368 154.489 129.427 154.489C134.486 154.489 139.063 154.764 142.372 155.209C144.028 155.431 145.359 155.695 146.272 155.985C146.73 156.131 147.073 156.279 147.297 156.427C147.531 156.58 147.59 156.7 147.59 156.776Z" fill="#F5F5F5" stroke="#808080" stroke-width="0.353382"/>
<path opacity="0.2" d="M242.831 156.776C242.831 156.851 242.771 156.971 242.538 157.125C242.313 157.272 241.971 157.421 241.513 157.566C240.599 157.856 239.268 158.12 237.612 158.343C234.303 158.787 229.727 159.063 224.668 159.063C219.609 159.063 215.032 158.787 211.723 158.343C210.067 158.12 208.736 157.856 207.823 157.566C207.365 157.421 207.022 157.272 206.798 157.125C206.564 156.971 206.505 156.851 206.505 156.776C206.505 156.7 206.564 156.58 206.798 156.427C207.022 156.279 207.365 156.131 207.823 155.985C208.736 155.695 210.067 155.431 211.723 155.209C215.032 154.764 219.609 154.489 224.668 154.489C229.727 154.489 234.303 154.764 237.612 155.209C239.268 155.431 240.599 155.695 241.513 155.985C241.971 156.131 242.313 156.279 242.538 156.427C242.771 156.58 242.831 156.7 242.831 156.776Z" fill="#F5F5F5" stroke="#808080" stroke-width="0.353382"/>
<path opacity="0.2" d="M276.768 156.776C276.768 156.851 276.708 156.971 276.475 157.125C276.251 157.272 275.908 157.421 275.45 157.566C274.536 157.856 273.205 158.12 271.55 158.343C268.241 158.787 263.664 159.063 258.605 159.063C253.546 159.063 248.97 158.787 245.661 158.343C244.005 158.12 242.674 157.856 241.76 157.566C241.302 157.421 240.96 157.272 240.735 157.125C240.502 156.971 240.442 156.851 240.442 156.776C240.442 156.7 240.502 156.58 240.735 156.427C240.96 156.279 241.302 156.131 241.76 155.985C242.674 155.695 244.005 155.431 245.661 155.209C248.97 154.764 253.546 154.489 258.605 154.489C263.664 154.489 268.241 154.764 271.55 155.209C273.205 155.431 274.536 155.695 275.45 155.985C275.908 156.131 276.251 156.279 276.475 156.427C276.708 156.58 276.768 156.7 276.768 156.776Z" fill="#F5F5F5" stroke="#808080" stroke-width="0.353382"/>
<path d="M170.48 180.214H183.616C185.938 180.214 187.82 182.095 187.82 184.415C187.82 186.735 185.938 188.615 183.616 188.615H170.48C168.158 188.615 166.276 186.735 166.276 184.415C166.276 182.095 168.158 180.214 170.48 180.214Z" fill="white" stroke="#808080" stroke-width="0.353382"/>
<path opacity="0.2" d="M170.48 180.214H183.616C185.938 180.214 187.82 182.095 187.82 184.415C187.82 186.735 185.938 188.615 183.616 188.615H170.48C168.158 188.615 166.276 186.735 166.276 184.415C166.276 182.095 168.158 180.214 170.48 180.214Z" fill="#F5F5F5" stroke="#808080" stroke-width="0.353382"/>
<circle cx="178.557" cy="201.522" r="1.48242" fill="#4A4A4A"/>
<rect x="139.021" y="251.221" width="78.4992" height="23.0704" rx="2.39868" fill="#FFA600"/>
<path d="M152.335 266.712L155.814 255.169H159.335L153.99 270.517H150.691L145.368 255.169H148.878L152.335 266.712ZM168.653 267.355H163.108L162.054 270.517H158.692L164.405 255.169H167.335L173.08 270.517H169.718L168.653 267.355ZM163.962 264.793H167.799L165.87 259.048L163.962 264.793ZM177.676 267.977H184.391V270.517H174.514V255.169H177.676V267.977ZM197.578 255.169V265.278C197.578 266.958 197.051 268.286 195.996 269.263C194.949 270.24 193.516 270.728 191.696 270.728C189.904 270.728 188.481 270.254 187.427 269.305C186.372 268.356 185.835 267.053 185.814 265.394V255.169H188.976V265.299C188.976 266.304 189.215 267.039 189.693 267.502C190.178 267.959 190.845 268.188 191.696 268.188C193.474 268.188 194.377 267.253 194.405 265.384V255.169H197.578ZM209.405 263.866H203.333V267.977H210.459V270.517H200.171V255.169H210.438V257.731H203.333V261.389H209.405V263.866Z" fill="white"/>
<defs>
<linearGradient id="paint0_linear" x1="175" y1="0" x2="175" y2="485.266" gradientUnits="userSpaceOnUse">
<stop offset="0.12987"/>
<stop offset="1" stop-opacity="0"/>
</linearGradient>
<linearGradient id="paint1_linear" x1="177.048" y1="227.624" x2="177.048" y2="149.632" gradientUnits="userSpaceOnUse">
<stop stop-color="#808080" stop-opacity="0.25"/>
<stop offset="0.54" stop-color="#808080" stop-opacity="0.12"/>
<stop offset="1" stop-color="#808080" stop-opacity="0.1"/>
</linearGradient>
<clipPath id="clip0">
<rect width="350" height="399.879" fill="white" transform="translate(0 87.0774)"/>
</clipPath>
</defs>
</svg>
